<?xml version="1.0" encoding="UTF-8" standalone="no"?>
<!-- Created with Inkscape (http://www.inkscape.org/) -->

<svg
   xmlns:dc="http://purl.org/dc/elements/1.1/"
   xmlns:cc="http://creativecommons.org/ns#"
   xmlns:rdf="http://www.w3.org/1999/02/22-rdf-syntax-ns#"
   xmlns:svg="http://www.w3.org/2000/svg"
   xmlns="http://www.w3.org/2000/svg"
   xmlns:sodipodi="http://sodipodi.sourceforge.net/DTD/sodipodi-0.dtd"
   xmlns:inkscape="http://www.inkscape.org/namespaces/inkscape"
   id="svg2"
   version="1.1"
   inkscape:version="0.48.4 r9939"
   width="324.25336"
   height="190.07681"
   xml:space="preserve"
   sodipodi:docname="analogist-logo2014.ai"><metadata
     id="metadata8"><rdf:RDF><cc:Work
         rdf:about=""><dc:format>image/svg+xml</dc:format><dc:type
           rdf:resource="http://purl.org/dc/dcmitype/StillImage" /><dc:title></dc:title></cc:Work></rdf:RDF></metadata><defs
     id="defs6"><clipPath
       clipPathUnits="userSpaceOnUse"
       id="clipPath18"><path
         d="m 0,841.89 595.28,0 L 595.28,0 0,0 0,841.89 z"
         id="path20"
         inkscape:connector-curvature="0" /></clipPath></defs><sodipodi:namedview
     pagecolor="#ffffff"
     bordercolor="#666666"
     borderopacity="1"
     objecttolerance="10"
     gridtolerance="10"
     guidetolerance="10"
     inkscape:pageopacity="0"
     inkscape:pageshadow="2"
     inkscape:window-width="1280"
     inkscape:window-height="968"
     id="namedview4"
     showgrid="false"
     fit-margin-top="5"
     fit-margin-left="5"
     fit-margin-right="5"
     fit-margin-bottom="5"
     inkscape:zoom="0.70710678"
     inkscape:cx="110.79106"
     inkscape:cy="-139.29171"
     inkscape:window-x="0"
     inkscape:window-y="27"
     inkscape:window-maximized="1"
     inkscape:current-layer="g10" /><g
     id="g10"
     inkscape:groupmode="layer"
     inkscape:label="analogist-logo2014"
     transform="matrix(1.25,0,0,-1.25,-110.81653,949.22334)"><path
       d="m 255.60142,718.81492 c -0.292,2.774 -0.9,5.487 -1.764,8.11 3.83301,-12.485 1.51101,-25.667 -6.41799,-37.082 -3.746,-5.454 -8.178,-9.204 -13.633,-11.93 -6.136,-3.409 -12.611,-4.433 -19.427,-4.433 -5.45601,0.342 -10.91,1.363 -16.02201,4.433 -3.06899,2.046 -5.45499,4.091 -8.18199,6.476 -10.906,10.906 -12.611,30.335 -1.702,41.583 -10.567,-12.27 -7.161,-31.697 5.454,-41.583 1.021,-0.682 1.70299,-1.022 2.384,-1.705 11.25,-7.498 24.541,-7.157 35.79099,-1.023 9.203,5.455 15.67901,13.634 18.06601,24.202 3.066,12.611 -0.34201,24.541 -8.18,34.426 -12.955,15.68 -36.134,19.43 -53.515,9.886 11.246,5.794 24.881,6.474 36.812,1.703 11.58799,-4.771 20.451,-14.315 23.86099,-26.586 2.31701,-8.94 1.73901,-17.877 -2.67,-26.191 -0.153,-0.273 -4.397,-7.688 -8.51799,-11.527 -2.869,-2.572 -6.151,-4.649 -9.944,-5.913 -0.685,-0.339 -1.36401,-0.681 -2.047,-1.022 -13.29501,-4.43 -28.29201,0.683 -35.792,12.952 -4.088,7.158 -5.451,15.678 -1.702,23.18 -3.411,-8.522 0,-17.385 5.11,-24.201 3.411,-3.75 7.16,-6.478 11.933,-8.181 4.088,-1.365 8.518,-2.047 12.953,-1.705 7.498,1.023 14.314,4.091 19.42799,9.886 6.136,7.158 9.202,16.019 8.52101,25.564 -0.682,9.543 -5.455,17.724 -12.612,24.202 -8.181,6.815 -18.74701,9.883 -29.315,8.86 -12.271,-1.364 -23.519,-8.178 -30.677,-18.405 9.203,12.61 24.201,20.452 40.22,18.065 5.796,-1.024 10.57,-2.386 15.681,-5.794 4.773,-3.407 8.521,-7.159 11.59,-12.271 6.81599,-10.906 6.134,-24.202 -0.342,-34.77 -3.408,-5.112 -8.18,-8.859 -13.634,-11.246 -11.25,-4.771 -24.88301,-1.363 -31.69901,9.203 -4.43199,6.817 -4.43199,15.681 0,22.156 -4.77199,-8.865 -1.36399,-20.113 6.816,-25.906 7.501,-5.112 17.04301,-5.453 24.88301,-1.705 7.159,3.752 12.26899,9.885 13.97599,18.066 2.045,9.885 -0.34199,19.77 -6.81699,27.269 -7.501,8.522 -18.747,12.271 -29.997,11.249 -0.68,0 -1.703,-0.684 -2.385,-0.684 -21.815,-3.405 -35.448,-26.588 -31.36,-47.379 -2.385,12.272 1.363,25.226 9.545,34.772 5.454,5.791 12.269,10.222 20.452,11.928 14.31599,3.067 28.972,-2.726 36.47,-15.34 5.455,-9.544 5.11499,-20.792 -1.02,-29.996 -3.752,-5.113 -8.523,-7.838 -14.31701,-9.203 -7.497,-1.704 -16.35999,1.023 -19.088,8.181 3.408,-4.773 9.544,-7.158 15.338,-6.816 12.27,0.681 20.79401,12.95 20.11,24.539 -0.681,8.863 -5.79499,16.364 -13.292,21.477 -4.77399,3.069 -10.225,4.432 -15.67999,4.771 -5.45301,0 -10.56601,-1.021 -15.681,-3.75 -4.088,-2.385 -7.496,-4.771 -10.566,-8.18 -3.748,-4.432 -6.477,-9.542 -7.84,-15.338 -1.022,-4.773 -1.363,-9.205 -0.682,-13.976 1.705,-9.543 6.137,-17.724 12.955,-24.2 5.10999,-4.433 10.56499,-7.5 17.041,-9.203 1.70499,-0.344 3.06999,-0.682 4.43199,-1.023 1.192,-0.163 2.386,-0.282 3.579,-0.359 -0.055,0.008 -0.11299,0.012 -0.17,0.018 -5.794,0.682 -11.58899,2.044 -16.702,5.113 -1.36399,1.021 -2.38499,1.703 -3.74999,2.384 -2.72701,1.706 -4.77101,3.75 -6.81801,6.137 -1.022,1.362 -2.045,2.387 -3.06699,3.751 -9.20401,13.29 -9.544,29.993 0,43.286 5.114,7.158 11.932,11.59 20.45099,12.953 10.908,2.048 22.49801,-2.045 27.95,-11.929 -5.111,7.839 -14.65499,11.248 -23.518,10.908 -12.27299,-0.681 -22.838,-9.206 -26.587,-20.791 -1.364,-4.774 -2.044,-9.546 -1.70399,-14.657 0.58499,-7.046 3.447,-13.584 7.931,-18.965 0,0 2.87999,-3.538 6.04699,-5.968 0.42,-0.392 0.869,-0.729 1.36201,-0.975 0.1,-0.057 0.205,-0.114 0.30799,-0.172 0.25601,-0.152 0.51001,-0.291 0.761,-0.418 5.142,-2.78 10.578,-4.908 16.313,-5.544 7.499,-0.682 14.999,0.682 21.816,4.09 1.023,0.683 2.044,1.024 3.068,1.705 13.633,9.202 21.133,24.541 19.428,40.561"
       style="fill:#f5b58f;fill-opacity:1;fill-rule:nonzero;stroke:none"
       id="path36"
       inkscape:connector-curvature="0" /><path
       d="m 218.10532,672.78812 c 0,-3.106 -2.517,-5.622 -5.623,-5.622 -3.105,0 -5.62,2.516 -5.62,5.622 0,3.102 2.515,5.621 5.62,5.621 3.106,0 5.623,-2.519 5.623,-5.621"
       style="fill:#e73939;fill-opacity:1;fill-rule:nonzero;stroke:none"
       id="path48"
       inkscape:connector-curvature="0" /><path
       d="m 180.20932,708.11912 c 0,-3.103 -2.517,-5.621 -5.623,-5.621 -3.104,0 -5.618,2.518 -5.618,5.621 0,3.104 2.514,5.621 5.618,5.621 3.106,0 5.623,-2.517 5.623,-5.621"
       style="fill:#e73939;fill-opacity:1;fill-rule:nonzero;stroke:none"
       id="path52"
       inkscape:connector-curvature="0" /><path
       d="m 212.92272,748.88382 c 0,-3.105 -2.518,-5.621 -5.623,-5.621 -3.104,0 -5.619,2.516 -5.619,5.621 0,3.103 2.515,5.62 5.619,5.62 3.105,0 5.623,-2.517 5.623,-5.62"
       style="fill:#e73939;fill-opacity:1;fill-rule:nonzero;stroke:none"
       id="path56"
       inkscape:connector-curvature="0" /><path
       d="m 244.61072,697.28852 c 0,-3.105 -2.515,-5.619 -5.621,-5.619 -3.103,0 -5.62,2.514 -5.62,5.619 0,3.103 2.517,5.621 5.62,5.621 3.106,0 5.621,-2.518 5.621,-5.621"
       style="fill:#e73939;fill-opacity:1;fill-rule:nonzero;stroke:none"
       id="path60"
       inkscape:connector-curvature="0" /><path
       d="m 246.83782,746.68412 c 0,-3.105 -2.517,-5.621 -5.622,-5.621 -3.104,0 -5.62,2.516 -5.62,5.621 0,3.104 2.516,5.619 5.62,5.619 3.105,0 5.622,-2.515 5.622,-5.619"
       style="fill:#e73939;fill-opacity:1;fill-rule:nonzero;stroke:none"
       id="path64"
       inkscape:connector-curvature="0" /><path
       d="m 259.33922,712.58401 c 0,-1.934 -1.566,-3.5 -3.498,-3.5 -1.932,0 -3.5,1.566 -3.5,3.5 0,1.931 1.568,3.498 3.5,3.498 1.932,0 3.498,-1.567 3.498,-3.498"
       style="fill:#e73939;fill-opacity:1;fill-rule:nonzero;stroke:none"
       id="path68"
       inkscape:connector-curvature="0" /><path
       d="m 181.58632,740.19821 c 0,-1.936 -1.568,-3.498 -3.498,-3.498 -1.934,0 -3.502,1.562 -3.502,3.498 0,1.932 1.568,3.498 3.502,3.498 1.93,0 3.498,-1.566 3.498,-3.498"
       style="fill:#e73939;fill-opacity:1;fill-rule:nonzero;stroke:none"
       id="path72"
       inkscape:connector-curvature="0" /><path
       d="m 188.58243,679.68602 c 0,-1.932 -1.566,-3.498 -3.498,-3.498 -1.934,0 -3.498,1.566 -3.498,3.498 0,1.931 1.564,3.497 3.498,3.497 1.932,0 3.498,-1.566 3.498,-3.497"
       style="fill:#e73939;fill-opacity:1;fill-rule:nonzero;stroke:none"
       id="path76"
       inkscape:connector-curvature="0" /><path
       d="m 94.674223,638.59422 c 0,-3.536 1.294,-6.598 3.883,-9.187 2.588997,-2.589 5.660997,-3.883 9.218997,-3.883 3.556,0 6.598,1.294 9.123,3.883 2.526,2.589 3.789,5.661 3.789,9.218 0,3.557 -1.274,6.64 -3.82,9.25 -2.548,2.61 -5.588,3.915 -9.124,3.915 -3.536,0 -6.598,-1.316 -9.186997,-3.946 -2.589,-2.631 -3.883,-5.714 -3.883,-9.25 m 27.907997,14.27 0,-28.414 -2.021,0 0,7.072 c -1.179,-2.399 -2.947,-4.293 -5.304,-5.682 -2.357,-1.39 -4.883,-2.084 -7.576,-2.084 -4.126,0 -7.662,1.462 -10.607997,4.388 -2.947,2.925 -4.42,6.429 -4.42,10.513 0,4.083 1.473,7.586 4.42,10.513 2.945997,2.925 6.481997,4.388 10.607997,4.388 2.693,0 5.272,-0.716 7.734,-2.147 2.463,-1.431 4.177,-3.325 5.146,-5.682 l 0,7.135 2.021,0 z"
       style="fill:#605b5b;fill-opacity:1;fill-rule:nonzero;stroke:none"
       id="path80"
       inkscape:connector-curvature="0" /><path
       d="m 132.17862,624.45072 -2.021,0 0,28.413 2.021,0 0,-5.746 c 2.146,4.294 5.809,6.44 10.986,6.44 3.536,0 6.504,-1.221 8.903,-3.662 2.399,-2.441 3.599,-5.409 3.599,-8.903 l 0,-16.542 -2.021,0 0,16.542 c 0,2.905 -1.021,5.431 -3.062,7.578 -2.042,2.146 -4.514,3.22 -7.419,3.22 -2.904,0 -5.462,-1.074 -7.672,-3.22 -2.209,-2.147 -3.314,-4.673 -3.314,-7.578 l 0,-16.542 z"
       style="fill:#605b5b;fill-opacity:1;fill-rule:nonzero;stroke:none"
       id="path84"
       inkscape:connector-curvature="0" /><path
       d="m 163.68442,638.59422 c 0,-3.536 1.294,-6.598 3.883,-9.187 2.589,-2.589 5.661,-3.883 9.219,-3.883 3.556,0 6.598,1.294 9.123,3.883 2.526,2.589 3.789,5.661 3.789,9.218 0,3.557 -1.274,6.64 -3.82,9.25 -2.548,2.61 -5.588,3.915 -9.124,3.915 -3.536,0 -6.598,-1.316 -9.187,-3.946 -2.589,-2.631 -3.883,-5.714 -3.883,-9.25 m 27.908,14.27 0,-28.414 -2.021,0 0,7.072 c -1.179,-2.399 -2.947,-4.293 -5.304,-5.682 -2.357,-1.39 -4.883,-2.084 -7.576,-2.084 -4.126,0 -7.662,1.462 -10.608,4.388 -2.947,2.925 -4.42,6.429 -4.42,10.513 0,4.083 1.473,7.586 4.42,10.513 2.946,2.925 6.482,4.388 10.608,4.388 2.693,0 5.272,-0.716 7.734,-2.147 2.463,-1.431 4.177,-3.325 5.146,-5.682 l 0,7.135 2.021,0 z"
       style="fill:#605b5b;fill-opacity:1;fill-rule:nonzero;stroke:none"
       id="path88"
       inkscape:connector-curvature="0" /><path
       d="m 209.96522,625.65042 0,-1.768 c -2.989,0 -5.53599,0.999 -7.64,2.999 -2.106,1.999 -3.157,4.556 -3.157,7.672 l 0,37.252 2.021,0 0,-37.252 c 0,-2.569 0.852,-4.695 2.557,-6.378 1.704,-1.684 3.777,-2.525 6.219,-2.525"
       style="fill:#605b5b;fill-opacity:1;fill-rule:nonzero;stroke:none"
       id="path92"
       inkscape:connector-curvature="0" /><path
       d="m 238.94612,638.62552 c 0,3.557 -1.274,6.64 -3.82,9.25 -2.547,2.61 -5.588,3.915 -9.124,3.915 -3.535,0 -6.598,-1.316 -9.187,-3.946 -2.588,-2.632 -3.883,-5.715 -3.883,-9.25 0,-3.536 1.295,-6.598 3.883,-9.187 2.589,-2.589 5.661,-3.884 9.219,-3.884 3.557,0 6.598,1.295 9.123,3.884 2.526,2.589 3.789,5.66 3.789,9.218 m -23.678,-10.355 c -2.904,3.009 -4.356,6.514 -4.356,10.513 0,3.999 1.472,7.46 4.42,10.386 2.946,2.926 6.492,4.389 10.639,4.389 4.145,0 7.681,-1.463 10.607,-4.389 2.926,-2.926 4.389,-6.398 4.389,-10.418 0,-4.02 -1.432,-7.524 -4.294,-10.512 -2.863,-2.989 -6.336,-4.483 -10.418,-4.483 l -0.568,0 c -4.041,0 -7.514,1.504 -10.419,4.514"
       style="fill:#605b5b;fill-opacity:1;fill-rule:nonzero;stroke:none"
       id="path96"
       inkscape:connector-curvature="0" /><path
       d="m 247.40661,638.59422 c 0,-3.579 1.294,-6.662 3.883,-9.25 2.589,-2.589 5.661,-3.883 9.219,-3.883 3.556,0 6.598,1.294 9.123,3.883 2.526,2.588 3.789,5.671 3.789,9.25 0,3.577 -1.263,6.661 -3.789,9.25 -2.525,2.588 -5.567,3.883 -9.123,3.883 -3.558,0 -6.63,-1.295 -9.219,-3.883 -2.589,-2.589 -3.883,-5.673 -3.883,-9.25 m 25.951,14.27 2.02,0 0,-25.762 c 0,-4.882 -1.347,-8.734 -4.041,-11.554 -2.694,-2.82 -6.23,-4.231 -10.608,-4.231 -2.399,0 -4.735,0.548 -7.008,1.642 -2.273,1.095 -4.041,2.526 -5.304,4.294 l 0,2.904 c 1.094,-2.021 2.81,-3.704 5.146,-5.051 2.336,-1.347 4.725,-2.021 7.166,-2.021 3.704,0 6.735,1.253 9.093,3.757 2.356,2.505 3.536,5.925 3.536,10.26 l 0,4.231 c -1.137,-2.316 -2.927,-4.168 -5.368,-5.556 -2.441,-1.39 -4.967,-2.084 -7.576,-2.084 -4.126,0 -7.662,1.462 -10.608,4.388 -2.947,2.925 -4.42,6.43 -4.42,10.513 0,4.082 1.473,7.586 4.42,10.513 2.946,2.925 6.482,4.388 10.608,4.388 2.736,0 5.293,-0.685 7.671,-2.052 2.378,-1.369 4.136,-3.252 5.273,-5.651 l 0,7.072 z"
       style="fill:#605b5b;fill-opacity:1;fill-rule:nonzero;stroke:none"
       id="path100"
       inkscape:connector-curvature="0" /><path
       d="m 283.16441,654.42142 3.62,0 c 0.308,0 0.603,-0.007 0.884,-0.021 0.28,-0.015 0.491,-0.12 0.631,-0.316 0.14,-0.197 0.217,-0.449 0.232,-0.758 0.013,-0.309 0.021,-0.646 0.021,-1.01 l 0,-3.662 0,-14.607 0,-6.903 c 0,-0.365 0.007,-0.772 0.021,-1.221 0.014,-0.449 -0.05,-0.785 -0.19,-1.01 -0.112,-0.196 -0.365,-0.351 -0.757,-0.463 -0.197,-0.055 -0.407,-0.07 -0.631,-0.042 -0.226,0.029 -0.45,0.042 -0.674,0.042 l -2.484,0 c -0.309,0 -0.596,0.014 -0.862,0.042 -0.268,0.028 -0.485,0.112 -0.653,0.253 -0.141,0.14 -0.225,0.35 -0.253,0.632 -0.028,0.279 -0.042,0.574 -0.042,0.883 l 0,3.662 0,15.365 0,6.145 c 0,0.393 -0.007,0.856 -0.021,1.389 -0.014,0.533 0.049,0.912 0.19,1.137 0.112,0.168 0.294,0.308 0.547,0.421 0.084,0 0.161,0.006 0.232,0.021 0.069,0.014 0.132,0.021 0.189,0.021"
       style="fill:#605b5b;fill-opacity:1;fill-rule:nonzero;stroke:none"
       id="path104"
       inkscape:connector-curvature="0" /><path
       d="m 304.37932,655.09472 c 5.444,0.084 9.19,-1.53 11.239,-4.841 0.28,-0.449 0.498,-0.912 0.653,-1.389 0.153,-0.478 0.3,-0.996 0.441,-1.557 0.056,-0.225 0.077,-0.484 0.063,-0.779 -0.014,-0.295 -0.077,-0.513 -0.189,-0.652 -0.141,-0.169 -0.337,-0.274 -0.589,-0.316 -0.253,-0.042 -0.534,-0.063 -0.842,-0.063 l -2.652,0 -0.758,0 c -0.252,0 -0.463,0.027 -0.631,0.084 -0.337,0.14 -0.547,0.364 -0.631,0.673 -0.084,0.309 -0.197,0.617 -0.337,0.926 -0.113,0.281 -0.267,0.575 -0.463,0.884 -0.197,0.309 -0.408,0.548 -0.632,0.716 -0.393,0.28 -0.772,0.519 -1.136,0.715 -0.337,0.141 -0.751,0.26 -1.242,0.358 -0.491,0.098 -0.996,0.161 -1.515,0.19 -0.52,0.028 -1.031,0.013 -1.537,-0.042 -0.505,-0.057 -0.954,-0.169 -1.346,-0.337 -0.646,-0.281 -1.145,-0.611 -1.495,-0.989 -0.351,-0.379 -0.596,-0.947 -0.736,-1.705 -0.057,-0.197 -0.071,-0.415 -0.043,-0.652 0.028,-0.239 0.07,-0.429 0.127,-0.569 0.224,-0.589 0.54,-1.004 0.947,-1.241 0.406,-0.239 0.89,-0.471 1.452,-0.695 0.309,-0.141 0.624,-0.246 0.947,-0.316 0.322,-0.07 0.653,-0.162 0.989,-0.274 0.758,-0.252 1.537,-0.47 2.336,-0.652 0.8,-0.183 1.593,-0.386 2.379,-0.61 0.14,-0.057 0.28,-0.084 0.421,-0.084 0.14,0 0.28,-0.029 0.421,-0.085 0.561,-0.196 1.143,-0.378 1.746,-0.547 0.604,-0.168 1.143,-0.407 1.621,-0.715 0.758,-0.478 1.41,-0.955 1.957,-1.432 0.548,-0.477 1.059,-1.094 1.537,-1.852 0.14,-0.225 0.259,-0.477 0.357,-0.757 0.099,-0.281 0.204,-0.562 0.316,-0.842 0.028,-0.084 0.042,-0.162 0.042,-0.232 0,-0.07 0.014,-0.133 0.042,-0.189 0.112,-0.449 0.169,-1.01 0.169,-1.684 0.056,-0.14 0.056,-0.281 0,-0.421 l 0,-0.757 c -0.057,-0.31 -0.105,-0.604 -0.148,-0.884 -0.042,-0.282 -0.105,-0.562 -0.189,-0.843 -0.168,-0.504 -0.351,-0.967 -0.547,-1.388 -0.197,-0.421 -0.436,-0.828 -0.716,-1.221 -0.112,-0.141 -0.224,-0.26 -0.336,-0.358 -0.113,-0.098 -0.211,-0.218 -0.295,-0.358 -0.141,-0.168 -0.295,-0.33 -0.463,-0.484 -0.169,-0.154 -0.351,-0.302 -0.547,-0.442 -0.141,-0.112 -0.289,-0.225 -0.442,-0.336 -0.155,-0.113 -0.316,-0.226 -0.484,-0.337 -0.478,-0.309 -0.976,-0.562 -1.495,-0.758 -0.519,-0.196 -1.059,-0.393 -1.62,-0.589 -0.394,-0.14 -0.8,-0.232 -1.221,-0.274 -0.421,-0.042 -0.842,-0.105 -1.263,-0.189 -0.197,-0.056 -0.386,-0.077 -0.568,-0.063 -0.183,0.014 -0.358,-0.007 -0.526,-0.063 l -0.337,0 c -0.057,0 -0.133,0.007 -0.231,0.021 -0.099,0.014 -0.176,0.007 -0.232,-0.021 -0.141,-0.028 -0.379,-0.043 -0.716,-0.043 -0.336,0 -0.575,0.015 -0.715,0.043 l -0.421,0 c -0.197,0.056 -0.4,0.077 -0.61,0.063 -0.211,-0.014 -0.4,0.007 -0.569,0.063 -0.14,0 -0.267,0.007 -0.379,0.021 -0.112,0.014 -0.238,0.035 -0.379,0.063 -0.336,0.084 -0.687,0.154 -1.052,0.211 -0.365,0.056 -0.701,0.14 -1.01,0.252 -1.375,0.449 -2.582,1.017 -3.62,1.705 -1.039,0.687 -1.909,1.592 -2.61,2.715 -0.449,0.673 -0.8,1.473 -1.052,2.399 -0.057,0.168 -0.092,0.337 -0.105,0.505 -0.015,0.169 -0.05,0.351 -0.106,0.548 -0.056,0.224 -0.098,0.497 -0.126,0.82 -0.028,0.323 0.028,0.569 0.168,0.737 0.14,0.224 0.344,0.358 0.611,0.4 0.266,0.042 0.568,0.063 0.905,0.063 l 2.652,0 0.715,0 c 0.253,0 0.477,-0.042 0.674,-0.126 0.308,-0.141 0.49,-0.372 0.547,-0.695 0.056,-0.323 0.154,-0.653 0.295,-0.989 0.112,-0.337 0.252,-0.646 0.421,-0.926 0.168,-0.281 0.35,-0.547 0.547,-0.8 0.14,-0.169 0.294,-0.323 0.463,-0.463 0.168,-0.141 0.336,-0.267 0.505,-0.379 0.617,-0.393 1.374,-0.715 2.273,-0.968 0.196,-0.056 0.385,-0.084 0.568,-0.084 0.182,0 0.386,-0.028 0.61,-0.084 l 0.211,0 c 0.225,-0.057 0.533,-0.085 0.926,-0.085 0.393,0 0.701,0.028 0.926,0.085 0.084,0.027 0.225,0.042 0.421,0.042 0.14,0.027 0.287,0.048 0.442,0.063 0.154,0.014 0.301,0.049 0.442,0.105 0.954,0.253 1.712,0.589 2.273,1.011 0.561,0.42 0.954,1.122 1.179,2.104 0.055,0.196 0.063,0.421 0.021,0.673 -0.042,0.253 -0.092,0.449 -0.148,0.59 -0.28,0.758 -0.757,1.347 -1.431,1.768 -0.084,0.056 -0.239,0.14 -0.463,0.252 -0.421,0.253 -0.891,0.456 -1.41,0.611 -0.519,0.153 -1.031,0.316 -1.537,0.484 -0.196,0.056 -0.385,0.105 -0.567,0.147 -0.183,0.042 -0.387,0.091 -0.611,0.147 -0.449,0.141 -0.905,0.26 -1.368,0.358 -0.463,0.098 -0.905,0.217 -1.326,0.358 -0.141,0.056 -0.253,0.084 -0.336,0.084 -0.085,0 -0.184,0.028 -0.295,0.084 -0.225,0.056 -0.429,0.112 -0.611,0.169 -0.182,0.056 -0.386,0.112 -0.61,0.168 -0.646,0.224 -1.263,0.456 -1.852,0.694 -0.59,0.239 -1.137,0.512 -1.642,0.821 -0.646,0.421 -1.235,0.912 -1.768,1.474 -0.533,0.561 -0.954,1.206 -1.263,1.936 -0.112,0.252 -0.196,0.512 -0.252,0.779 -0.057,0.266 -0.126,0.553 -0.21,0.863 -0.057,0.252 -0.099,0.617 -0.127,1.094 -0.028,0.477 -0.014,0.869 0.042,1.179 0.028,0.111 0.043,0.28 0.043,0.505 0.084,0.308 0.153,0.603 0.21,0.884 0.056,0.28 0.14,0.561 0.252,0.841 0.421,0.983 0.961,1.817 1.621,2.505 0.659,0.687 1.424,1.312 2.294,1.873 0.561,0.337 1.164,0.603 1.81,0.8 0.645,0.196 1.333,0.379 2.063,0.548 0.28,0.055 0.553,0.09 0.82,0.105 0.267,0.013 0.54,0.048 0.821,0.105 0.085,0.027 0.217,0.027 0.4,0 0.182,-0.028 0.301,-0.015 0.358,0.042"
       style="fill:#605b5b;fill-opacity:1;fill-rule:nonzero;stroke:none"
       id="path108"
       inkscape:connector-curvature="0" /><path
       d="m 337.46372,654.46342 4.294,0 c 0.364,0 0.722,-0.007 1.073,-0.021 0.351,-0.015 0.638,-0.092 0.863,-0.231 0.084,-0.057 0.147,-0.148 0.189,-0.274 0.042,-0.126 0.078,-0.26 0.106,-0.4 l 0,-0.211 c 0.027,-0.112 0.042,-0.238 0.042,-0.379 l 0,-0.421 0,-1.641 c 0,-0.197 0.006,-0.386 0.021,-0.568 0.014,-0.183 -0.007,-0.358 -0.063,-0.526 -0.141,-0.478 -0.421,-0.73 -0.842,-0.758 -0.421,-0.028 -0.926,-0.042 -1.516,-0.042 l -4.293,0 c -0.562,0 -1.046,-0.021 -1.452,-0.063 -0.407,-0.043 -0.681,-0.302 -0.821,-0.779 -0.028,-0.141 -0.028,-0.267 0,-0.379 0.027,-0.113 0.014,-0.239 -0.042,-0.379 -0.029,-0.168 -0.036,-0.358 -0.021,-0.568 0.014,-0.211 0.021,-0.4 0.021,-0.568 l 0,-3.747 0,-12.123 0,-3.956 c 0,-0.449 -0.021,-0.836 -0.063,-1.158 -0.042,-0.323 -0.218,-0.554 -0.527,-0.694 -0.196,-0.057 -0.421,-0.085 -0.673,-0.085 l -0.715,0 -2.863,0 c -0.309,0 -0.596,0.014 -0.863,0.042 -0.267,0.028 -0.47,0.127 -0.61,0.295 -0.141,0.224 -0.211,0.512 -0.211,0.863 l 0,1.073 0,4.21 0,11.702 0,3.578 c 0,0.196 0.007,0.399 0.021,0.61 0.014,0.21 -0.007,0.4 -0.063,0.568 -0.028,0.14 -0.028,0.267 0,0.379 0.028,0.112 0.014,0.224 -0.042,0.337 -0.14,0.477 -0.428,0.736 -0.863,0.779 -0.435,0.042 -0.947,0.063 -1.536,0.063 l -3.915,0 c -0.309,0 -0.652,-0.007 -1.031,-0.021 -0.379,-0.015 -0.681,0.006 -0.905,0.063 -0.225,0.084 -0.393,0.21 -0.505,0.379 -0.085,0.14 -0.134,0.322 -0.148,0.547 -0.014,0.224 -0.021,0.448 -0.021,0.673 l 0,2.063 c 0,0.364 0.021,0.687 0.063,0.968 0.042,0.28 0.176,0.491 0.4,0.632 0.085,0.055 0.239,0.111 0.463,0.168 l 0.211,0 16.837,0 z"
       style="fill:#605b5b;fill-opacity:1;fill-rule:nonzero;stroke:none"
       id="path112"
       inkscape:connector-curvature="0" /></g></svg>