<?xml version="1.0" encoding="UTF-8" standalone="no"?>
<!-- Created with Inkscape (http://www.inkscape.org/) -->

<svg
   xmlns:dc="http://purl.org/dc/elements/1.1/"
   xmlns:cc="http://creativecommons.org/ns#"
   xmlns:rdf="http://www.w3.org/1999/02/22-rdf-syntax-ns#"
   xmlns:svg="http://www.w3.org/2000/svg"
   xmlns="http://www.w3.org/2000/svg"
   xmlns:sodipodi="http://sodipodi.sourceforge.net/DTD/sodipodi-0.dtd"
   xmlns:inkscape="http://www.inkscape.org/namespaces/inkscape"
   id="svg2"
   version="1.1"
   inkscape:version="0.48.4 r9939"
   width="327.52258"
   height="80.448364"
   xml:space="preserve"
   sodipodi:docname="analogist-logo1.svg"><metadata
     id="metadata8"><rdf:RDF><cc:Work
         rdf:about=""><dc:format>image/svg+xml</dc:format><dc:type
           rdf:resource="http://purl.org/dc/dcmitype/StillImage" /><dc:title></dc:title></cc:Work></rdf:RDF></metadata><defs
     id="defs6"><clipPath
       clipPathUnits="userSpaceOnUse"
       id="clipPath18"><path
         d="m 0,841.89 595.28,0 L 595.28,0 0,0 0,841.89 z"
         id="path20"
         inkscape:connector-curvature="0" /></clipPath></defs><sodipodi:namedview
     pagecolor="#ffffff"
     bordercolor="#666666"
     borderopacity="1"
     objecttolerance="10"
     gridtolerance="10"
     guidetolerance="10"
     inkscape:pageopacity="0"
     inkscape:pageshadow="2"
     inkscape:window-width="1280"
     inkscape:window-height="968"
     id="namedview4"
     showgrid="false"
     inkscape:zoom="2.8284271"
     inkscape:cx="179.82595"
     inkscape:cy="29.316832"
     inkscape:window-x="0"
     inkscape:window-y="27"
     inkscape:window-maximized="1"
     inkscape:current-layer="g10"
     fit-margin-top="5"
     fit-margin-left="5"
     fit-margin-right="5"
     fit-margin-bottom="5" /><g
     id="g10"
     inkscape:groupmode="layer"
     inkscape:label="analogist-logo2014"
     transform="matrix(1.25,0,0,-1.25,-323.78884,980.32259)"><path
       inkscape:connector-curvature="0"
       d="m 318.38097,756.89718 c -0.187,1.772 -0.575,3.506 -1.128,5.182 2.449,-7.976 0.966,-16.398 -4.1,-23.692 -2.394,-3.484 -5.225,-5.88 -8.71,-7.621 -3.919,-2.179 -8.057,-2.833 -12.413,-2.833 -3.484,0.219 -6.969,0.871 -10.235,2.833 -1.961,1.307 -3.485,2.613 -5.227,4.137 -6.968,6.968 -8.058,19.381 -1.089,26.568 -6.75,-7.84 -4.573,-20.252 3.485,-26.568 0.653,-0.436 1.089,-0.653 1.523,-1.089 7.189,-4.791 15.68,-4.572 22.869,-0.654 5.879,3.486 10.016,8.711 11.541,15.463 1.959,8.057 -0.218,15.679 -5.227,21.994 -8.276,10.018 -23.085,12.414 -34.191,6.316 7.186,3.702 15.897,4.137 23.52,1.089 7.403,-3.048 13.066,-9.147 15.245,-16.986 1.48,-5.712 1.111,-11.422 -1.706,-16.734 -0.098,-0.174 -2.809,-4.911 -5.441,-7.364 -1.834,-1.644 -3.931,-2.97 -6.355,-3.778 -0.436,-0.216 -0.872,-0.435 -1.307,-0.653 -8.495,-2.83 -18.075,0.437 -22.867,8.275 -2.612,4.574 -3.483,10.017 -1.089,14.809 -2.177,-5.444 0,-11.107 3.266,-15.461 2.179,-2.396 4.574,-4.138 7.623,-5.227 2.613,-0.871 5.443,-1.307 8.277,-1.089 4.79,0.653 9.144,2.613 12.413,6.316 3.919,4.573 5.878,10.235 5.443,16.333 -0.436,6.097 -3.485,11.323 -8.058,15.462 -5.226,4.354 -11.978,6.314 -18.729,5.661 -7.84,-0.872 -15.026,-5.226 -19.599,-11.759 5.879,8.057 15.462,13.067 25.696,11.542 3.702,-0.655 6.754,-1.525 10.018,-3.702 3.05,-2.177 5.445,-4.573 7.406,-7.84 4.354,-6.968 3.918,-15.462 -0.219,-22.214 -2.177,-3.266 -5.227,-5.66 -8.71,-7.186 -7.189,-3.048 -15.899,-0.87 -20.253,5.88 -2.832,4.356 -2.832,10.019 0,14.156 -3.049,-5.664 -0.872,-12.85 4.354,-16.552 4.792,-3.265 10.889,-3.484 15.899,-1.089 4.573,2.397 7.838,6.316 8.929,11.543 1.306,6.315 -0.219,12.631 -4.356,17.421 -4.792,5.445 -11.977,7.84 -19.165,7.188 -0.435,0 -1.088,-0.437 -1.523,-0.437 -13.937,-2.177 -22.648,-16.987 -20.037,-30.27 -1.523,7.84 0.872,16.115 6.1,22.214 3.483,3.701 7.837,6.532 13.065,7.621 9.146,1.96 18.51,-1.742 23.301,-9.8 3.486,-6.098 3.268,-13.284 -0.652,-19.164 -2.397,-3.267 -5.444,-5.008 -9.147,-5.88 -4.791,-1.089 -10.453,0.653 -12.195,5.226 2.177,-3.049 6.097,-4.573 9.8,-4.354 7.839,0.434 13.284,8.274 12.848,15.678 -0.435,5.663 -3.703,10.454 -8.493,13.721 -3.049,1.961 -6.533,2.831 -10.017,3.048 -3.485,0 -6.751,-0.652 -10.019,-2.395 -2.612,-1.524 -4.789,-3.049 -6.751,-5.226 -2.394,-2.832 -4.138,-6.097 -5.009,-9.8 -0.653,-3.049 -0.87,-5.881 -0.435,-8.929 1.089,-6.097 3.92,-11.324 8.276,-15.461 3.265,-2.833 6.751,-4.791 10.888,-5.88 1.089,-0.219 1.962,-0.435 2.832,-0.654 0.762,-0.104 1.523,-0.179 2.286,-0.229 -0.035,0.004 -0.072,0.008 -0.109,0.011 -3.701,0.437 -7.404,1.306 -10.67,3.267 -0.872,0.652 -1.525,1.088 -2.396,1.523 -1.743,1.09 -3.048,2.396 -4.355,3.921 -0.654,0.871 -1.308,1.525 -1.961,2.397 -5.879,8.491 -6.097,19.162 0,27.654 3.268,4.574 7.623,7.406 13.066,8.277 6.969,1.307 14.374,-1.307 17.858,-7.622 -3.266,5.008 -9.363,7.186 -15.026,6.969 -7.841,-0.435 -14.591,-5.881 -16.985,-13.283 -0.873,-3.05 -1.308,-6.099 -1.09,-9.365 0.374,-4.502 2.203,-8.678 5.068,-12.116 0,0 1.839,-2.26 3.862,-3.813 0.269,-0.25 0.556,-0.466 0.87,-0.623 0.065,-0.036 0.131,-0.073 0.197,-0.109 0.163,-0.098 0.325,-0.187 0.488,-0.267 3.283,-1.778 6.756,-3.136 10.42,-3.543 4.791,-0.436 9.583,0.436 13.939,2.613 0.654,0.436 1.307,0.655 1.96,1.089 8.711,5.88 13.502,15.68 12.413,25.914"
       style="fill:#f5b58f;fill-opacity:1;fill-rule:nonzero;stroke:none"
       id="path128" /><path
       inkscape:connector-curvature="0"
       d="m 294.42497,727.49138 c 0,-1.984 -1.608,-3.592 -3.593,-3.592 -1.983,0 -3.59,1.608 -3.59,3.592 0,1.982 1.607,3.591 3.59,3.591 1.985,0 3.593,-1.609 3.593,-3.591"
       style="fill:#e73939;fill-opacity:1;fill-rule:nonzero;stroke:none"
       id="path140" /><path
       inkscape:connector-curvature="0"
       d="m 270.21307,750.06418 c 0,-1.982 -1.608,-3.591 -3.592,-3.591 -1.983,0 -3.59,1.609 -3.59,3.591 0,1.983 1.607,3.591 3.59,3.591 1.984,0 3.592,-1.608 3.592,-3.591"
       style="fill:#e73939;fill-opacity:1;fill-rule:nonzero;stroke:none"
       id="path144" /><path
       inkscape:connector-curvature="0"
       d="m 291.11347,776.10858 c 0,-1.984 -1.607,-3.591 -3.592,-3.591 -1.983,0 -3.59,1.607 -3.59,3.591 0,1.982 1.607,3.591 3.59,3.591 1.985,0 3.592,-1.609 3.592,-3.591"
       style="fill:#e73939;fill-opacity:1;fill-rule:nonzero;stroke:none"
       id="path148" /><path
       inkscape:connector-curvature="0"
       d="m 311.35857,743.14428 c 0,-1.983 -1.606,-3.589 -3.591,-3.589 -1.983,0 -3.591,1.606 -3.591,3.589 0,1.983 1.608,3.591 3.591,3.591 1.985,0 3.591,-1.608 3.591,-3.591"
       style="fill:#e73939;fill-opacity:1;fill-rule:nonzero;stroke:none"
       id="path152" /><path
       inkscape:connector-curvature="0"
       d="m 312.78137,774.70328 c 0,-1.983 -1.607,-3.592 -3.592,-3.592 -1.982,0 -3.591,1.609 -3.591,3.592 0,1.983 1.609,3.59 3.591,3.59 1.985,0 3.592,-1.607 3.592,-3.59"
       style="fill:#e73939;fill-opacity:1;fill-rule:nonzero;stroke:none"
       id="path156" /><path
       inkscape:connector-curvature="0"
       d="m 320.76867,752.91668 c 0,-1.235 -1,-2.236 -2.235,-2.236 -1.234,0 -2.236,1.001 -2.236,2.236 0,1.234 1.002,2.235 2.236,2.235 1.235,0 2.235,-1.001 2.235,-2.235"
       style="fill:#e73939;fill-opacity:1;fill-rule:nonzero;stroke:none"
       id="path160" /><path
       inkscape:connector-curvature="0"
       d="m 271.09286,770.55978 c 0,-1.237 -1.002,-2.235 -2.235,-2.235 -1.235,0 -2.237,0.998 -2.237,2.235 0,1.234 1.002,2.234 2.237,2.234 1.233,0 2.235,-1 2.235,-2.234"
       style="fill:#e73939;fill-opacity:1;fill-rule:nonzero;stroke:none"
       id="path164" /><path
       inkscape:connector-curvature="0"
       d="m 275.56267,731.89868 c 0,-1.234 -1,-2.234 -2.235,-2.234 -1.235,0 -2.235,1 -2.235,2.234 0,1.233 1,2.234 2.235,2.234 1.235,0 2.235,-1.001 2.235,-2.234"
       style="fill:#e73939;fill-opacity:1;fill-rule:nonzero;stroke:none"
       id="path168" /><path
       inkscape:connector-curvature="0"
       d="m 326.64857,753.59348 c 0,-2.7 0.988,-5.038 2.965,-7.014 1.976,-1.977 4.322,-2.965 7.038,-2.965 2.716,0 5.038,0.988 6.966,2.965 1.928,1.976 2.892,4.322 2.892,7.038 0,2.716 -0.971,5.069 -2.916,7.062 -1.945,1.993 -4.266,2.989 -6.966,2.989 -2.7,0 -5.038,-1.005 -7.014,-3.012 -1.977,-2.01 -2.965,-4.363 -2.965,-7.063 m 21.308,10.895 0,-21.693 -1.542,0 0,5.399 c -0.901,-1.832 -2.25,-3.278 -4.05,-4.339 -1.8,-1.06 -3.729,-1.591 -5.785,-1.591 -3.15,0 -5.85,1.117 -8.099,3.351 -2.25,2.233 -3.374,4.909 -3.374,8.026 0,3.117 1.124,5.792 3.374,8.027 2.249,2.233 4.949,3.35 8.099,3.35 2.056,0 4.025,-0.547 5.905,-1.639 1.881,-1.093 3.189,-2.539 3.93,-4.339 l 0,5.448 1.542,0 z"
       style="fill:#605b5b;fill-opacity:1;fill-rule:nonzero;stroke:none"
       id="path172" /><path
       inkscape:connector-curvature="0"
       d="m 355.28237,742.79508 -1.542,0 0,21.693 1.542,0 0,-4.387 c 1.64,3.278 4.436,4.917 8.389,4.917 2.699,0 4.965,-0.932 6.797,-2.796 1.832,-1.864 2.748,-4.13 2.748,-6.797 l 0,-12.63 -1.543,0 0,12.63 c 0,2.218 -0.78,4.146 -2.338,5.785 -1.56,1.639 -3.447,2.459 -5.664,2.459 -2.218,0 -4.17,-0.82 -5.858,-2.459 -1.687,-1.639 -2.531,-3.567 -2.531,-5.785 l 0,-12.63 z"
       style="fill:#605b5b;fill-opacity:1;fill-rule:nonzero;stroke:none"
       id="path176" /><path
       inkscape:connector-curvature="0"
       d="m 379.33706,753.59348 c 0,-2.7 0.988,-5.038 2.965,-7.014 1.976,-1.977 4.322,-2.965 7.038,-2.965 2.716,0 5.038,0.988 6.966,2.965 1.928,1.976 2.892,4.322 2.892,7.038 0,2.716 -0.971,5.069 -2.916,7.062 -1.945,1.993 -4.266,2.989 -6.966,2.989 -2.7,0 -5.038,-1.005 -7.014,-3.012 -1.977,-2.01 -2.965,-4.363 -2.965,-7.063 m 21.308,10.895 0,-21.693 -1.542,0 0,5.399 c -0.901,-1.832 -2.25,-3.278 -4.05,-4.339 -1.8,-1.06 -3.729,-1.591 -5.785,-1.591 -3.15,0 -5.85,1.117 -8.099,3.351 -2.25,2.233 -3.374,4.909 -3.374,8.026 0,3.117 1.124,5.792 3.374,8.027 2.249,2.233 4.949,3.35 8.099,3.35 2.056,0 4.025,-0.547 5.905,-1.639 1.881,-1.093 3.189,-2.539 3.93,-4.339 l 0,5.448 1.542,0 z"
       style="fill:#605b5b;fill-opacity:1;fill-rule:nonzero;stroke:none"
       id="path180" /><path
       inkscape:connector-curvature="0"
       d="m 414.67297,743.71118 0,-1.35 c -2.282,0 -4.227,0.763 -5.833,2.29 -1.607,1.526 -2.41,3.478 -2.41,5.857 l 0,28.442 1.542,0 0,-28.442 c 0,-1.961 0.651,-3.584 1.953,-4.869 1.302,-1.285 2.884,-1.928 4.748,-1.928"
       style="fill:#605b5b;fill-opacity:1;fill-rule:nonzero;stroke:none"
       id="path184" /><path
       inkscape:connector-curvature="0"
       d="m 436.79897,753.61738 c 0,2.716 -0.972,5.069 -2.916,7.063 -1.945,1.992 -4.267,2.988 -6.966,2.988 -2.7,0 -5.038,-1.005 -7.014,-3.012 -1.977,-2.01 -2.965,-4.363 -2.965,-7.063 0,-2.7 0.988,-5.038 2.965,-7.014 1.976,-1.977 4.322,-2.965 7.038,-2.965 2.715,0 5.038,0.988 6.965,2.965 1.929,1.976 2.893,4.322 2.893,7.038 m -18.077,-7.906 c -2.218,2.298 -3.326,4.973 -3.326,8.027 0,3.052 1.124,5.695 3.374,7.93 2.249,2.233 4.957,3.35 8.123,3.35 3.165,0 5.864,-1.117 8.098,-3.35 2.234,-2.235 3.351,-4.886 3.351,-7.954 0,-3.07 -1.093,-5.745 -3.278,-8.027 -2.186,-2.282 -4.837,-3.423 -7.954,-3.423 l -0.434,0 c -3.085,0 -5.736,1.149 -7.954,3.447"
       style="fill:#605b5b;fill-opacity:1;fill-rule:nonzero;stroke:none"
       id="path188" /><path
       inkscape:connector-curvature="0"
       d="m 443.25797,753.59348 c 0,-2.732 0.988,-5.086 2.965,-7.063 1.976,-1.976 4.322,-2.964 7.038,-2.964 2.716,0 5.038,0.988 6.966,2.964 1.928,1.977 2.892,4.331 2.892,7.063 0,2.731 -0.964,5.086 -2.892,7.063 -1.928,1.976 -4.25,2.964 -6.966,2.964 -2.716,0 -5.062,-0.988 -7.038,-2.964 -1.977,-1.977 -2.965,-4.332 -2.965,-7.063 m 19.813,10.895 1.543,0 0,-19.668 c 0,-3.728 -1.029,-6.669 -3.085,-8.823 -2.057,-2.152 -4.757,-3.229 -8.099,-3.229 -1.832,0 -3.615,0.418 -5.351,1.253 -1.735,0.836 -3.086,1.928 -4.05,3.278 l 0,2.218 c 0.836,-1.543 2.146,-2.828 3.929,-3.857 1.784,-1.028 3.608,-1.543 5.472,-1.543 2.828,0 5.141,0.957 6.942,2.869 1.799,1.912 2.699,4.524 2.699,7.834 l 0,3.229 c -0.868,-1.768 -2.234,-3.182 -4.097,-4.242 -1.864,-1.061 -3.793,-1.591 -5.785,-1.591 -3.15,0 -5.85,1.116 -8.099,3.351 -2.25,2.233 -3.374,4.908 -3.374,8.026 0,3.117 1.124,5.792 3.374,8.026 2.249,2.234 4.949,3.351 8.099,3.351 2.089,0 4.041,-0.523 5.857,-1.567 1.816,-1.045 3.157,-2.482 4.025,-4.314 l 0,5.399 z"
       style="fill:#605b5b;fill-opacity:1;fill-rule:nonzero;stroke:none"
       id="path192" /><path
       inkscape:connector-curvature="0"
       d="m 470.55877,765.67748 2.765,0 c 0.235,0 0.46,-0.006 0.674,-0.016 0.214,-0.011 0.374,-0.091 0.482,-0.241 0.107,-0.15 0.166,-0.343 0.177,-0.579 0.01,-0.236 0.016,-0.493 0.016,-0.771 l 0,-2.796 0,-11.152 0,-5.271 c 0,-0.278 0.005,-0.589 0.016,-0.931 0.011,-0.344 -0.037,-0.6 -0.145,-0.772 -0.086,-0.15 -0.278,-0.268 -0.578,-0.353 -0.15,-0.043 -0.311,-0.054 -0.482,-0.033 -0.172,0.022 -0.343,0.033 -0.514,0.033 l -1.896,0 c -0.237,0 -0.455,0.01 -0.66,0.032 -0.203,0.021 -0.369,0.085 -0.498,0.193 -0.107,0.107 -0.171,0.267 -0.192,0.482 -0.021,0.214 -0.032,0.439 -0.032,0.675 l 0,2.795 0,11.731 0,4.692 c 0,0.3 -0.006,0.654 -0.017,1.061 -0.011,0.407 0.037,0.696 0.145,0.867 0.086,0.129 0.225,0.236 0.418,0.322 0.064,0 0.123,0.005 0.176,0.016 0.054,0.01 0.102,0.016 0.145,0.016"
       style="fill:#605b5b;fill-opacity:1;fill-rule:nonzero;stroke:none"
       id="path196" /><path
       inkscape:connector-curvature="0"
       d="m 486.75597,766.19158 c 4.156,0.064 7.017,-1.168 8.581,-3.696 0.214,-0.343 0.38,-0.697 0.498,-1.06 0.118,-0.365 0.231,-0.761 0.338,-1.19 0.043,-0.171 0.059,-0.369 0.048,-0.594 -0.011,-0.225 -0.06,-0.391 -0.145,-0.498 -0.107,-0.129 -0.257,-0.209 -0.45,-0.241 -0.192,-0.033 -0.407,-0.049 -0.642,-0.049 l -2.025,0 -0.578,0 c -0.193,0 -0.354,0.021 -0.482,0.065 -0.257,0.107 -0.418,0.278 -0.483,0.514 -0.064,0.235 -0.15,0.471 -0.257,0.707 -0.086,0.214 -0.204,0.439 -0.353,0.675 -0.151,0.235 -0.311,0.418 -0.483,0.546 -0.299,0.214 -0.588,0.396 -0.867,0.547 -0.257,0.107 -0.573,0.197 -0.948,0.273 -0.375,0.075 -0.761,0.123 -1.157,0.145 -0.397,0.021 -0.787,0.01 -1.173,-0.033 -0.386,-0.043 -0.729,-0.128 -1.028,-0.257 -0.494,-0.214 -0.873,-0.466 -1.141,-0.755 -0.269,-0.289 -0.456,-0.723 -0.563,-1.302 -0.043,-0.15 -0.053,-0.316 -0.032,-0.498 0.021,-0.182 0.053,-0.327 0.097,-0.434 0.171,-0.449 0.412,-0.766 0.723,-0.948 0.31,-0.182 0.679,-0.359 1.108,-0.53 0.236,-0.108 0.476,-0.188 0.724,-0.241 0.246,-0.054 0.498,-0.124 0.754,-0.209 0.58,-0.193 1.173,-0.359 1.785,-0.498 0.61,-0.14 1.215,-0.295 1.815,-0.466 0.107,-0.043 0.214,-0.064 0.321,-0.064 0.108,0 0.214,-0.022 0.322,-0.065 0.428,-0.15 0.873,-0.289 1.334,-0.417 0.46,-0.129 0.873,-0.311 1.237,-0.547 0.578,-0.364 1.076,-0.729 1.494,-1.092 0.418,-0.365 0.809,-0.836 1.173,-1.414 0.107,-0.172 0.198,-0.365 0.273,-0.579 0.076,-0.214 0.156,-0.429 0.242,-0.643 0.021,-0.064 0.032,-0.123 0.032,-0.176 0,-0.054 0.011,-0.102 0.032,-0.145 0.085,-0.343 0.128,-0.771 0.128,-1.286 0.043,-0.107 0.043,-0.214 0,-0.321 l 0,-0.578 c -0.043,-0.236 -0.08,-0.461 -0.112,-0.675 -0.033,-0.215 -0.08,-0.429 -0.145,-0.643 -0.128,-0.386 -0.267,-0.74 -0.418,-1.061 -0.149,-0.321 -0.332,-0.632 -0.546,-0.932 -0.086,-0.107 -0.172,-0.198 -0.257,-0.273 -0.086,-0.075 -0.161,-0.166 -0.225,-0.273 -0.108,-0.129 -0.225,-0.252 -0.354,-0.37 -0.128,-0.118 -0.267,-0.23 -0.418,-0.337 -0.107,-0.086 -0.219,-0.172 -0.337,-0.257 -0.118,-0.086 -0.241,-0.172 -0.37,-0.257 -0.364,-0.236 -0.744,-0.429 -1.14,-0.579 -0.397,-0.15 -0.809,-0.3 -1.238,-0.45 -0.299,-0.107 -0.61,-0.177 -0.931,-0.208 -0.322,-0.033 -0.643,-0.081 -0.964,-0.145 -0.151,-0.043 -0.295,-0.059 -0.435,-0.048 -0.139,0.01 -0.272,-0.006 -0.401,-0.049 l -0.257,0 c -0.044,0 -0.102,0.006 -0.177,0.016 -0.076,0.011 -0.134,0.006 -0.176,-0.016 -0.108,-0.021 -0.29,-0.032 -0.547,-0.032 -0.257,0 -0.44,0.011 -0.546,0.032 l -0.321,0 c -0.151,0.043 -0.306,0.059 -0.467,0.049 -0.16,-0.011 -0.305,0.005 -0.434,0.048 -0.107,0 -0.204,0.005 -0.289,0.016 -0.086,0.011 -0.183,0.027 -0.289,0.048 -0.258,0.064 -0.525,0.118 -0.804,0.161 -0.278,0.043 -0.536,0.107 -0.771,0.193 -1.05,0.342 -1.972,0.776 -2.764,1.301 -0.793,0.525 -1.457,1.216 -1.992,2.073 -0.344,0.514 -0.611,1.125 -0.804,1.832 -0.043,0.128 -0.07,0.257 -0.08,0.385 -0.012,0.129 -0.038,0.268 -0.081,0.418 -0.043,0.172 -0.075,0.381 -0.096,0.627 -0.021,0.246 0.021,0.434 0.128,0.562 0.108,0.172 0.263,0.274 0.466,0.306 0.204,0.032 0.435,0.048 0.692,0.048 l 2.024,0 0.547,0 c 0.192,0 0.364,-0.032 0.514,-0.096 0.235,-0.108 0.375,-0.285 0.417,-0.531 0.043,-0.246 0.118,-0.498 0.225,-0.755 0.086,-0.257 0.193,-0.493 0.322,-0.707 0.128,-0.214 0.268,-0.418 0.417,-0.61 0.108,-0.129 0.226,-0.247 0.354,-0.354 0.129,-0.107 0.258,-0.204 0.386,-0.29 0.471,-0.3 1.049,-0.546 1.735,-0.739 0.15,-0.043 0.295,-0.064 0.435,-0.064 0.138,0 0.293,-0.021 0.465,-0.064 l 0.161,0 c 0.171,-0.043 0.407,-0.065 0.707,-0.065 0.299,0 0.536,0.022 0.707,0.065 0.064,0.021 0.171,0.032 0.322,0.032 0.106,0.021 0.219,0.037 0.337,0.048 0.117,0.011 0.23,0.037 0.338,0.08 0.727,0.193 1.306,0.451 1.735,0.772 0.428,0.321 0.728,0.856 0.899,1.607 0.043,0.149 0.049,0.321 0.017,0.514 -0.032,0.193 -0.07,0.342 -0.113,0.45 -0.214,0.578 -0.578,1.029 -1.092,1.35 -0.065,0.042 -0.183,0.107 -0.354,0.193 -0.322,0.193 -0.68,0.347 -1.077,0.466 -0.396,0.117 -0.787,0.241 -1.173,0.369 -0.15,0.043 -0.294,0.08 -0.433,0.112 -0.14,0.033 -0.295,0.07 -0.467,0.113 -0.343,0.107 -0.69,0.198 -1.044,0.273 -0.353,0.075 -0.691,0.166 -1.013,0.274 -0.107,0.042 -0.192,0.064 -0.256,0.064 -0.065,0 -0.14,0.021 -0.225,0.064 -0.172,0.043 -0.327,0.085 -0.467,0.128 -0.14,0.043 -0.294,0.086 -0.466,0.129 -0.493,0.171 -0.964,0.348 -1.414,0.53 -0.45,0.182 -0.867,0.391 -1.253,0.627 -0.493,0.321 -0.943,0.696 -1.349,1.125 -0.408,0.428 -0.73,0.921 -0.965,1.478 -0.086,0.193 -0.15,0.391 -0.193,0.595 -0.042,0.203 -0.096,0.423 -0.161,0.659 -0.043,0.192 -0.075,0.471 -0.095,0.835 -0.023,0.364 -0.012,0.664 0.031,0.9 0.021,0.085 0.032,0.214 0.032,0.386 0.065,0.235 0.118,0.46 0.161,0.674 0.043,0.214 0.107,0.429 0.193,0.644 0.321,0.749 0.734,1.386 1.237,1.912 0.504,0.524 1.088,1.001 1.752,1.43 0.429,0.257 0.889,0.46 1.382,0.61 0.492,0.15 1.017,0.29 1.575,0.418 0.214,0.043 0.423,0.069 0.626,0.08 0.204,0.011 0.412,0.038 0.627,0.081 0.064,0.021 0.166,0.021 0.306,0 0.138,-0.022 0.229,-0.011 0.272,0.032"
       style="fill:#605b5b;fill-opacity:1;fill-rule:nonzero;stroke:none"
       id="path200" /><path
       inkscape:connector-curvature="0"
       d="m 512.01677,765.70968 3.278,0 c 0.279,0 0.551,-0.006 0.82,-0.016 0.267,-0.011 0.487,-0.07 0.659,-0.177 0.063,-0.043 0.112,-0.113 0.144,-0.209 0.033,-0.097 0.059,-0.198 0.08,-0.305 l 0,-0.161 c 0.021,-0.086 0.033,-0.182 0.033,-0.289 l 0,-0.322 0,-1.253 c 0,-0.15 0.005,-0.295 0.015,-0.434 0.011,-0.139 -0.005,-0.273 -0.048,-0.401 -0.107,-0.365 -0.321,-0.558 -0.642,-0.579 -0.321,-0.021 -0.707,-0.032 -1.157,-0.032 l -3.279,0 c -0.428,0 -0.798,-0.016 -1.108,-0.049 -0.311,-0.031 -0.52,-0.23 -0.627,-0.594 -0.022,-0.107 -0.022,-0.204 0,-0.289 0.021,-0.086 0.011,-0.182 -0.032,-0.289 -0.022,-0.129 -0.028,-0.273 -0.016,-0.434 0.011,-0.161 0.016,-0.306 0.016,-0.434 l 0,-2.86 0,-9.256 0,-3.021 c 0,-0.343 -0.016,-0.638 -0.048,-0.884 -0.032,-0.246 -0.166,-0.423 -0.401,-0.53 -0.151,-0.043 -0.323,-0.064 -0.515,-0.064 l -0.547,0 -2.185,0 c -0.236,0 -0.456,0.01 -0.659,0.032 -0.204,0.021 -0.359,0.096 -0.466,0.225 -0.107,0.171 -0.161,0.39 -0.161,0.659 l 0,0.819 0,3.214 0,8.934 0,2.732 c 0,0.149 0.005,0.305 0.017,0.466 0.011,0.16 -0.006,0.305 -0.049,0.434 -0.021,0.107 -0.021,0.203 0,0.289 0.022,0.085 0.011,0.171 -0.032,0.257 -0.108,0.364 -0.326,0.563 -0.658,0.594 -0.333,0.033 -0.724,0.049 -1.173,0.049 l -2.989,0 c -0.237,0 -0.499,-0.006 -0.788,-0.016 -0.289,-0.011 -0.519,0.005 -0.691,0.048 -0.172,0.064 -0.3,0.161 -0.386,0.289 -0.063,0.107 -0.101,0.246 -0.112,0.418 -0.011,0.171 -0.016,0.342 -0.016,0.514 l 0,1.575 c 0,0.278 0.016,0.525 0.048,0.739 0.032,0.214 0.134,0.375 0.306,0.482 0.064,0.043 0.181,0.086 0.353,0.129 l 0.161,0 12.855,0 z"
       style="fill:#605b5b;fill-opacity:1;fill-rule:nonzero;stroke:none"
       id="path204" /></g></svg>