<?xml version="1.0" encoding="UTF-8" standalone="no"?>
<!-- Created with Inkscape (http://www.inkscape.org/) -->

<svg
   xmlns:dc="http://purl.org/dc/elements/1.1/"
   xmlns:cc="http://creativecommons.org/ns#"
   xmlns:rdf="http://www.w3.org/1999/02/22-rdf-syntax-ns#"
   xmlns:svg="http://www.w3.org/2000/svg"
   xmlns="http://www.w3.org/2000/svg"
   xmlns:sodipodi="http://sodipodi.sourceforge.net/DTD/sodipodi-0.dtd"
   xmlns:inkscape="http://www.inkscape.org/namespaces/inkscape"
   id="svg2"
   version="1.1"
   inkscape:version="0.48.4 r9939"
   width="327.52271"
   height="80.43811"
   xml:space="preserve"
   sodipodi:docname="analogist-logo2014.ai"><metadata
     id="metadata8"><rdf:RDF><cc:Work
         rdf:about=""><dc:format>image/svg+xml</dc:format><dc:type
           rdf:resource="http://purl.org/dc/dcmitype/StillImage" /><dc:title></dc:title></cc:Work></rdf:RDF></metadata><defs
     id="defs6"><clipPath
       clipPathUnits="userSpaceOnUse"
       id="clipPath18"><path
         d="m 0,841.89 595.28,0 L 595.28,0 0,0 0,841.89 z"
         id="path20"
         inkscape:connector-curvature="0" /></clipPath></defs><sodipodi:namedview
     pagecolor="#ffffff"
     bordercolor="#666666"
     borderopacity="1"
     objecttolerance="10"
     gridtolerance="10"
     guidetolerance="10"
     inkscape:pageopacity="0"
     inkscape:pageshadow="2"
     inkscape:window-width="1280"
     inkscape:window-height="968"
     id="namedview4"
     showgrid="false"
     fit-margin-left="5"
     fit-margin-top="5"
     fit-margin-right="5"
     fit-margin-bottom="5"
     inkscape:zoom="1.2685909"
     inkscape:cx="197.17409"
     inkscape:cy="-197.65082"
     inkscape:window-x="0"
     inkscape:window-y="27"
     inkscape:window-maximized="1"
     inkscape:current-layer="g10" /><g
     id="g10"
     inkscape:groupmode="layer"
     inkscape:label="analogist-logo2014"
     transform="matrix(1.25,0,0,-1.25,-161.00842,953.0428)"><g
       id="g14"><g
         id="g16"
         clip-path="url(#clipPath18)" /></g><g
       id="g386"
       transform="translate(146.34374,718.96575)"><path
         inkscape:connector-curvature="0"
         d="m 0,0 c -2.612,4.575 -3.483,10.018 -1.089,14.81 -2.177,-5.445 0,-11.108 3.266,-15.462 2.179,-2.395 4.574,-4.138 7.623,-5.226 2.613,-0.871 5.443,-1.308 8.277,-1.089 4.612,0.628 8.81,2.486 12.035,5.927 0.346,-0.11 0.706,-0.186 1.088,-0.186 0.834,0 1.591,0.295 2.2,0.771 -0.872,-1.209 -1.877,-2.461 -2.871,-3.388 -1.834,-1.644 -3.931,-2.97 -6.355,-3.779 C 23.738,-7.837 23.302,-8.057 22.867,-8.273 14.372,-11.104 4.792,-7.837 0,0 m 3.485,-13.501 c -0.872,0.652 -1.525,1.089 -2.396,1.523 -0.916,0.573 -1.708,1.209 -2.445,1.902 0.219,0.346 0.351,0.753 0.351,1.193 0,1.234 -1.001,2.235 -2.235,2.235 -0.355,0 -0.686,-0.09 -0.984,-0.238 -0.334,0.391 -0.669,0.78 -1.003,1.226 -2.44,3.525 -3.889,7.427 -4.332,11.39 0.85,0.093 1.613,0.467 2.179,1.046 0.41,-4.426 2.22,-8.533 5.044,-11.922 0,0 1.839,-2.259 3.862,-3.813 0.269,-0.249 0.556,-0.465 0.87,-0.622 0.065,-0.037 0.131,-0.073 0.197,-0.109 0.163,-0.098 0.325,-0.188 0.488,-0.268 2.436,-1.318 4.977,-2.404 7.623,-3.044 -0.008,-0.097 -0.03,-0.189 -0.03,-0.288 0,-1.482 0.899,-2.755 2.181,-3.303 -3.263,0.482 -6.486,1.362 -9.37,3.092 M -9.867,12.865 c -0.028,0 -0.053,0.008 -0.08,0.008 -1.07,0 -2.02,-0.477 -2.678,-1.22 0.689,5.127 2.888,10.054 6.311,14.047 3.483,3.699 7.837,6.531 13.065,7.621 0.373,0.08 0.745,0.135 1.118,0.197 0.592,-1.01 1.657,-1.699 2.897,-1.764 -2.955,-0.162 -5.772,-0.851 -8.589,-2.355 -2.612,-1.523 -4.789,-3.048 -6.751,-5.224 -2.394,-2.832 -4.138,-6.098 -5.009,-9.8 -0.109,-0.509 -0.201,-1.011 -0.284,-1.51 m 8.778,7.823 C -7.839,12.85 -5.662,0.437 2.396,-5.878 c 0.653,-0.436 1.089,-0.653 1.523,-1.089 2.66,-1.772 5.498,-2.855 8.381,-3.322 -0.685,-0.45 -1.193,-1.131 -1.444,-1.929 -1.919,0.432 -3.809,1.11 -5.629,2.203 C 3.266,-8.709 1.742,-7.402 0,-5.878 -6.968,1.09 -8.058,13.503 -1.089,20.688 M 25.697,22.65 C 22.431,27.658 16.334,29.835 10.671,29.618 2.83,29.183 -3.92,23.737 -6.314,16.336 c -0.443,-1.549 -0.772,-3.098 -0.961,-4.674 -0.511,0.573 -1.194,0.987 -1.978,1.141 0.643,3.2 1.965,6.322 4.026,9.192 3.268,4.572 7.623,7.404 13.066,8.277 6.969,1.307 14.374,-1.307 17.858,-7.622 M 7.839,-0.87 c 4.792,-3.266 10.889,-3.484 15.899,-1.09 1.547,0.811 2.929,1.81 4.142,2.96 0.298,-0.725 0.832,-1.319 1.5,-1.715 C 27.711,-2.231 25.803,-3.449 23.738,-4.354 16.549,-7.402 7.839,-5.226 3.485,1.526 0.653,5.882 0.653,11.545 3.485,15.682 0.436,10.018 2.613,2.832 7.839,-0.87 m 6.289,34.55 c 6.5,-0.737 12.43,-4.283 15.924,-10.159 C 33.254,17.919 33.322,11.4 30.273,5.817 28.742,5.406 27.609,4.023 27.609,2.363 27.609,2.349 27.613,2.334 27.614,2.319 25.542,0.332 23.092,-0.855 20.253,-1.523 15.462,-2.611 9.8,-0.87 8.058,3.702 c 2.177,-3.049 6.097,-4.572 9.8,-4.354 7.839,0.435 13.284,8.275 12.848,15.678 -0.435,5.662 -3.703,10.454 -8.493,13.722 -3.049,1.961 -6.533,2.831 -10.017,3.048 -0.283,0 -0.564,-0.012 -0.844,-0.021 1.214,0.136 2.236,0.868 2.776,1.905 m 1.115,2.907 c 3.702,-0.654 6.754,-1.525 10.018,-3.701 3.05,-2.177 5.445,-4.573 7.406,-7.841 3.899,-6.239 3.948,-13.699 0.946,-20.039 -0.577,0.527 -1.324,0.86 -2.153,0.921 0.528,1.136 0.935,2.355 1.207,3.656 1.306,6.316 -0.219,12.631 -4.356,17.422 -3.634,4.129 -8.643,6.5 -13.986,7.122 0.134,0.377 0.22,0.777 0.22,1.2 0,0.485 -0.098,0.945 -0.272,1.366 0.323,-0.035 0.645,-0.057 0.97,-0.106 M 41.965,14.369 c -0.009,0 -0.018,-0.003 -0.028,-0.003 -0.024,0.582 -0.062,1.165 -0.124,1.75 -0.187,1.772 -0.575,3.506 -1.128,5.182 0.703,-2.29 1.071,-4.617 1.135,-6.944 -1.164,-0.076 -2.09,-1.035 -2.09,-2.219 0,-1.097 0.79,-2.004 1.83,-2.196 -0.617,-4.272 -2.286,-8.461 -4.975,-12.333 -2.394,-3.484 -5.225,-5.879 -8.71,-7.621 -3.209,-1.785 -6.568,-2.537 -10.071,-2.755 -0.132,0.899 -0.593,1.681 -1.262,2.235 3.521,0.147 7.015,1.152 10.246,2.913 5.879,3.486 10.016,8.712 11.541,15.464 1.959,8.057 -0.218,15.679 -5.227,21.993 -0.144,0.174 -0.305,0.328 -0.452,0.498 1.971,0.016 3.563,1.615 3.563,3.589 0,1.982 -1.607,3.59 -3.591,3.59 -1.983,0 -3.591,-1.608 -3.591,-3.59 0,-0.065 0.015,-0.124 0.018,-0.188 -8.508,6.62 -20.664,7.62 -30.138,2.417 7.186,3.703 15.897,4.138 23.52,1.089 2.431,-1.001 4.669,-2.337 6.663,-3.949 0.273,-1.529 1.51,-2.71 3.062,-2.914 2.54,-2.854 4.451,-6.276 5.52,-10.122 C 39.156,14.543 38.787,8.833 35.97,3.521 35.928,3.446 35.408,2.537 34.623,1.332 c 0.098,0.329 0.168,0.67 0.168,1.031 0,0.886 -0.333,1.687 -0.866,2.313 1.572,3.377 2.286,7.099 2.008,11.006 -0.436,6.096 -3.485,11.323 -8.058,15.462 -3.911,3.257 -8.675,5.174 -13.655,5.66 -0.564,1.244 -1.81,2.114 -3.266,2.114 -1.539,0 -2.841,-0.974 -3.352,-2.333 -4.862,-0.833 -9.414,-3.004 -13.174,-6.191 -0.268,0.932 -1.12,1.619 -2.138,1.619 -1.235,0 -2.237,-1 -2.237,-2.235 0,-1.003 0.663,-1.839 1.57,-2.123 -0.738,-0.827 -1.435,-1.694 -2.076,-2.61 0.661,0.907 1.377,1.769 2.128,2.594 0.197,-0.056 0.4,-0.096 0.615,-0.096 1.233,0 2.235,0.998 2.235,2.235 0,0.19 -0.031,0.371 -0.075,0.547 3.762,3.196 8.267,5.411 13.135,6.205 -0.135,-0.378 -0.222,-0.779 -0.222,-1.203 0,-0.558 0.138,-1.081 0.366,-1.552 -0.035,-0.004 -0.074,-0.02 -0.106,-0.02 -11.116,-1.735 -18.9,-11.509 -20.274,-22.133 -0.545,-0.63 -0.886,-1.44 -0.886,-2.339 0,-0.785 0.259,-1.506 0.686,-2.097 0.01,-0.225 0.029,-0.45 0.045,-0.674 -0.015,0.217 -0.018,0.435 -0.027,0.653 0.634,-0.863 1.639,-1.431 2.785,-1.464 0.011,-0.085 0.018,-0.17 0.03,-0.256 0.841,-4.71 2.733,-8.892 5.553,-12.462 -0.608,-0.399 -1.01,-1.085 -1.01,-1.866 0,-1.234 0.999,-2.234 2.235,-2.234 0.722,0 1.358,0.348 1.767,0.881 3.188,-2.711 6.594,-4.6 10.619,-5.66 1.089,-0.219 1.962,-0.435 2.832,-0.654 0.357,-0.049 0.716,-0.071 1.074,-0.107 0.38,-0.137 0.784,-0.225 1.212,-0.225 0.211,0 0.414,0.028 0.615,0.063 1.571,-0.111 3.112,-0.048 4.634,0.143 -1.484,-0.154 -2.98,-0.178 -4.481,-0.12 1.54,0.336 2.697,1.66 2.801,3.274 3.315,0.248 6.568,1.116 9.607,2.634 0.654,0.437 1.307,0.656 1.96,1.09 6.929,4.677 11.364,11.836 12.347,19.719 0.073,-0.008 0.143,-0.023 0.218,-0.023 1.236,0 2.236,1.001 2.236,2.237 0,1.234 -1,2.234 -2.236,2.234 m -4.289,13.289 c 0.497,-0.797 0.961,-1.618 1.387,-2.458 -0.031,0.091 -0.058,0.185 -0.081,0.28 -0.437,0.871 -0.871,1.525 -1.306,2.178 m 2.172,-4.142 c 0.311,-0.727 0.592,-1.467 0.837,-2.218 -0.183,0.598 -0.386,1.194 -0.613,1.788 -0.076,0.147 -0.15,0.29 -0.224,0.43 M 19.513,-16.676 c 2.24,0.236 4.452,0.711 6.619,1.432 -2.193,-0.609 -4.387,-1.15 -6.619,-1.432 m 20.335,40.192 c -0.244,0.569 -0.507,1.13 -0.785,1.684 0.187,-0.596 0.476,-1.103 0.785,-1.684"
         style="fill:#ffffff;fill-opacity:1;fill-rule:nonzero;stroke:none"
         id="path388" /></g><g
       id="g390"
       transform="translate(196.42434,731.77725)"><path
         inkscape:connector-curvature="0"
         d="m 0,0 c 0,-2.699 0.988,-5.037 2.965,-7.014 1.976,-1.976 4.322,-2.965 7.038,-2.965 2.716,0 5.038,0.989 6.966,2.965 1.928,1.977 2.892,4.323 2.892,7.038 0,2.716 -0.971,5.07 -2.916,7.063 C 15,9.079 12.679,10.076 9.979,10.076 7.279,10.076 4.941,9.071 2.965,7.063 0.988,5.054 0,2.7 0,0 m 21.308,10.896 0,-21.694 -1.542,0 0,5.4 c -0.901,-1.832 -2.25,-3.279 -4.05,-4.339 -1.8,-1.061 -3.729,-1.591 -5.785,-1.591 -3.15,0 -5.85,1.116 -8.099,3.35 -2.25,2.234 -3.374,4.909 -3.374,8.027 0,3.117 1.124,5.792 3.374,8.026 2.249,2.234 4.949,3.351 8.099,3.351 2.056,0 4.025,-0.547 5.905,-1.64 1.881,-1.093 3.189,-2.539 3.93,-4.338 l 0,5.448 1.542,0 z"
         style="fill:#ffffff;fill-opacity:1;fill-rule:nonzero;stroke:none"
         id="path392" /></g><g
       id="g394"
       transform="translate(225.05814,720.97945)"><path
         inkscape:connector-curvature="0"
         d="m 0,0 -1.542,0 0,21.693 1.542,0 0,-4.386 c 1.64,3.277 4.436,4.917 8.389,4.917 2.699,0 4.965,-0.933 6.797,-2.796 1.832,-1.865 2.748,-4.13 2.748,-6.798 l 0,-12.63 -1.543,0 0,12.63 c 0,2.218 -0.78,4.146 -2.338,5.785 -1.56,1.639 -3.447,2.459 -5.664,2.459 -2.218,0 -4.17,-0.82 -5.858,-2.459 C 0.844,16.776 0,14.848 0,12.63 L 0,0 z"
         style="fill:#ffffff;fill-opacity:1;fill-rule:nonzero;stroke:none"
         id="path396" /></g><g
       id="g398"
       transform="translate(249.11284,731.77725)"><path
         inkscape:connector-curvature="0"
         d="m 0,0 c 0,-2.699 0.988,-5.037 2.965,-7.014 1.976,-1.976 4.322,-2.965 7.038,-2.965 2.716,0 5.038,0.989 6.966,2.965 1.928,1.977 2.892,4.323 2.892,7.038 0,2.716 -0.971,5.07 -2.916,7.063 C 15,9.079 12.679,10.076 9.979,10.076 7.279,10.076 4.941,9.071 2.965,7.063 0.988,5.054 0,2.7 0,0 m 21.308,10.896 0,-21.694 -1.542,0 0,5.4 c -0.901,-1.832 -2.25,-3.279 -4.05,-4.339 -1.8,-1.061 -3.729,-1.591 -5.785,-1.591 -3.15,0 -5.85,1.116 -8.099,3.35 -2.25,2.234 -3.374,4.909 -3.374,8.027 0,3.117 1.124,5.792 3.374,8.026 2.249,2.234 4.949,3.351 8.099,3.351 2.056,0 4.025,-0.547 5.905,-1.64 1.881,-1.093 3.189,-2.539 3.93,-4.338 l 0,5.448 1.542,0 z"
         style="fill:#ffffff;fill-opacity:1;fill-rule:nonzero;stroke:none"
         id="path400" /></g><g
       id="g402"
       transform="translate(284.44774,721.89545)"><path
         inkscape:connector-curvature="0"
         d="m 0,0 0,-1.35 c -2.282,0 -4.227,0.763 -5.833,2.29 -1.607,1.526 -2.41,3.478 -2.41,5.857 l 0,28.442 1.542,0 0,-28.442 c 0,-1.961 0.651,-3.584 1.953,-4.869 C -3.446,0.643 -1.864,0 0,0"
         style="fill:#ffffff;fill-opacity:1;fill-rule:nonzero;stroke:none"
         id="path404" /></g><g
       id="g406"
       transform="translate(306.57474,731.80175)"><path
         inkscape:connector-curvature="0"
         d="m 0,0 c 0,2.716 -0.972,5.069 -2.916,7.063 -1.945,1.992 -4.267,2.989 -6.966,2.989 -2.7,0 -5.038,-1.005 -7.014,-3.014 -1.977,-2.009 -2.965,-4.362 -2.965,-7.062 0,-2.7 0.988,-5.038 2.965,-7.014 1.976,-1.977 4.322,-2.965 7.038,-2.965 2.715,0 5.038,0.988 6.965,2.965 C -0.964,-5.062 0,-2.716 0,0 m -18.077,-7.905 c -2.218,2.297 -3.326,4.972 -3.326,8.026 0,3.053 1.124,5.695 3.374,7.93 2.249,2.233 4.957,3.35 8.123,3.35 3.165,0 5.864,-1.117 8.098,-3.35 2.234,-2.235 3.351,-4.886 3.351,-7.954 0,-3.07 -1.093,-5.745 -3.278,-8.027 -2.186,-2.282 -4.837,-3.423 -7.954,-3.423 l -0.434,0 c -3.085,0 -5.736,1.149 -7.954,3.448"
         style="fill:#ffffff;fill-opacity:1;fill-rule:nonzero;stroke:none"
         id="path408" /></g><g
       id="g410"
       transform="translate(313.03374,731.77725)"><path
         inkscape:connector-curvature="0"
         d="m 0,0 c 0,-2.731 0.988,-5.085 2.965,-7.062 1.976,-1.976 4.322,-2.964 7.038,-2.964 2.716,0 5.038,0.988 6.966,2.964 1.928,1.977 2.892,4.331 2.892,7.062 0,2.731 -0.964,5.086 -2.892,7.063 -1.928,1.976 -4.25,2.964 -6.966,2.964 C 7.287,10.027 4.941,9.039 2.965,7.063 0.988,5.086 0,2.731 0,0 m 19.813,10.896 1.543,0 0,-19.669 c 0,-3.728 -1.029,-6.668 -3.085,-8.822 -2.057,-2.153 -4.757,-3.23 -8.099,-3.23 -1.832,0 -3.615,0.418 -5.351,1.254 -1.735,0.836 -3.086,1.927 -4.05,3.278 l 0,2.217 c 0.836,-1.542 2.146,-2.827 3.929,-3.857 1.784,-1.028 3.608,-1.542 5.472,-1.542 2.828,0 5.141,0.956 6.942,2.869 1.799,1.912 2.699,4.523 2.699,7.833 l 0,3.23 c -0.868,-1.769 -2.234,-3.182 -4.097,-4.242 -1.864,-1.061 -3.793,-1.591 -5.785,-1.591 -3.15,0 -5.85,1.116 -8.099,3.35 -2.25,2.233 -3.374,4.909 -3.374,8.026 0,3.117 1.124,5.793 3.374,8.027 2.249,2.234 4.949,3.35 8.099,3.35 2.089,0 4.041,-0.523 5.857,-1.566 1.816,-1.045 3.157,-2.483 4.025,-4.315 l 0,5.4 z"
         style="fill:#ffffff;fill-opacity:1;fill-rule:nonzero;stroke:none"
         id="path412" /></g><g
       id="g414"
       transform="translate(340.33454,743.86125)"><path
         inkscape:connector-curvature="0"
         d="M 0,0 2.765,0 C 3,0 3.225,-0.005 3.439,-0.016 3.653,-0.026 3.813,-0.107 3.921,-0.257 4.028,-0.407 4.087,-0.6 4.098,-0.835 4.108,-1.071 4.114,-1.328 4.114,-1.606 l 0,-2.796 0,-11.153 0,-5.27 c 0,-0.279 0.005,-0.589 0.016,-0.932 0.011,-0.343 -0.037,-0.6 -0.145,-0.771 -0.086,-0.151 -0.278,-0.269 -0.578,-0.354 -0.15,-0.043 -0.311,-0.054 -0.482,-0.032 -0.172,0.021 -0.343,0.032 -0.514,0.032 l -1.896,0 c -0.237,0 -0.455,0.011 -0.66,0.032 -0.203,0.022 -0.369,0.085 -0.498,0.193 -0.107,0.107 -0.171,0.267 -0.192,0.482 -0.021,0.214 -0.032,0.439 -0.032,0.675 l 0,2.796 0,11.73 0,4.693 c 0,0.3 -0.006,0.653 -0.017,1.06 -0.011,0.407 0.037,0.697 0.145,0.867 0.086,0.129 0.225,0.237 0.418,0.322 0.064,0 0.123,0.006 0.176,0.016 C -0.091,-0.005 -0.043,0 0,0"
         style="fill:#ffffff;fill-opacity:1;fill-rule:nonzero;stroke:none"
         id="path416" /></g><g
       id="g418"
       transform="translate(356.53174,744.37595)"><path
         inkscape:connector-curvature="0"
         d="M 0,0 C 4.156,0.064 7.017,-1.168 8.581,-3.696 8.795,-4.039 8.961,-4.393 9.079,-4.757 9.197,-5.121 9.31,-5.518 9.417,-5.945 9.46,-6.117 9.476,-6.315 9.465,-6.54 9.454,-6.765 9.405,-6.932 9.32,-7.038 9.213,-7.167 9.063,-7.247 8.87,-7.279 8.678,-7.312 8.463,-7.327 8.228,-7.327 l -2.025,0 -0.578,0 c -0.193,0 -0.354,0.02 -0.482,0.063 C 4.886,-7.156 4.725,-6.985 4.66,-6.749 4.596,-6.514 4.51,-6.278 4.403,-6.042 4.317,-5.828 4.199,-5.604 4.05,-5.367 3.899,-5.132 3.739,-4.949 3.567,-4.82 3.268,-4.606 2.979,-4.425 2.7,-4.274 2.443,-4.167 2.127,-4.076 1.752,-4.001 1.377,-3.927 0.991,-3.878 0.595,-3.856 0.198,-3.836 -0.192,-3.846 -0.578,-3.889 -0.964,-3.932 -1.307,-4.018 -1.606,-4.146 -2.1,-4.36 -2.479,-4.612 -2.747,-4.901 -3.016,-5.19 -3.203,-5.624 -3.31,-6.203 c -0.043,-0.15 -0.053,-0.317 -0.032,-0.498 0.021,-0.182 0.053,-0.326 0.097,-0.434 0.171,-0.45 0.412,-0.766 0.723,-0.948 0.31,-0.182 0.679,-0.358 1.108,-0.53 0.236,-0.108 0.476,-0.188 0.724,-0.241 0.246,-0.054 0.498,-0.124 0.754,-0.209 0.58,-0.193 1.173,-0.359 1.785,-0.499 0.61,-0.139 1.215,-0.293 1.815,-0.465 0.107,-0.043 0.214,-0.065 0.321,-0.065 0.108,0 0.214,-0.021 0.322,-0.063 0.428,-0.151 0.873,-0.29 1.334,-0.418 0.46,-0.129 0.873,-0.312 1.237,-0.547 0.578,-0.364 1.076,-0.729 1.494,-1.093 0.418,-0.364 0.809,-0.835 1.173,-1.414 0.107,-0.171 0.198,-0.364 0.273,-0.578 0.076,-0.215 0.156,-0.429 0.242,-0.643 0.021,-0.064 0.032,-0.124 0.032,-0.176 0,-0.054 0.011,-0.103 0.032,-0.145 0.085,-0.343 0.128,-0.771 0.128,-1.286 0.043,-0.108 0.043,-0.214 0,-0.321 l 0,-0.578 c -0.043,-0.237 -0.08,-0.461 -0.112,-0.675 -0.033,-0.215 -0.08,-0.429 -0.145,-0.643 -0.128,-0.386 -0.267,-0.739 -0.418,-1.06 -0.149,-0.322 -0.332,-0.633 -0.546,-0.933 -0.086,-0.107 -0.172,-0.198 -0.257,-0.273 -0.086,-0.076 -0.161,-0.166 -0.225,-0.273 -0.108,-0.129 -0.225,-0.252 -0.354,-0.37 -0.128,-0.117 -0.267,-0.231 -0.418,-0.337 -0.107,-0.086 -0.219,-0.172 -0.337,-0.257 -0.118,-0.086 -0.241,-0.172 -0.37,-0.258 -0.364,-0.235 -0.744,-0.428 -1.14,-0.578 -0.397,-0.15 -0.809,-0.301 -1.238,-0.45 -0.299,-0.106 -0.61,-0.177 -0.931,-0.209 -0.322,-0.032 -0.643,-0.08 -0.964,-0.144 -0.151,-0.043 -0.295,-0.059 -0.435,-0.048 -0.139,0.01 -0.272,-0.005 -0.401,-0.049 l -0.257,0 c -0.044,0 -0.102,0.006 -0.177,0.016 -0.076,0.011 -0.134,0.006 -0.176,-0.016 -0.108,-0.021 -0.29,-0.031 -0.547,-0.031 -0.257,0 -0.44,0.01 -0.546,0.031 l -0.321,0 c -0.151,0.044 -0.306,0.059 -0.467,0.049 -0.16,-0.011 -0.305,0.005 -0.434,0.048 -0.107,0 -0.204,0.005 -0.289,0.016 -0.086,0.011 -0.183,0.027 -0.289,0.048 -0.258,0.064 -0.525,0.118 -0.804,0.161 -0.278,0.043 -0.536,0.108 -0.771,0.193 -1.05,0.342 -1.972,0.776 -2.764,1.301 -0.793,0.525 -1.457,1.216 -1.992,2.073 -0.344,0.514 -0.611,1.125 -0.804,1.832 -0.043,0.128 -0.07,0.257 -0.08,0.385 -0.012,0.129 -0.038,0.268 -0.081,0.418 -0.043,0.171 -0.075,0.38 -0.096,0.627 -0.021,0.246 0.021,0.434 0.128,0.563 0.108,0.171 0.263,0.272 0.466,0.304 0.204,0.033 0.435,0.049 0.692,0.049 l 2.024,0 0.547,0 c 0.192,0 0.364,-0.032 0.514,-0.096 0.235,-0.108 0.375,-0.285 0.417,-0.531 0.043,-0.247 0.118,-0.498 0.225,-0.755 0.086,-0.257 0.193,-0.493 0.322,-0.707 0.128,-0.214 0.268,-0.418 0.417,-0.611 0.108,-0.128 0.226,-0.246 0.354,-0.353 0.129,-0.108 0.258,-0.204 0.386,-0.29 0.471,-0.299 1.049,-0.545 1.735,-0.739 0.15,-0.043 0.295,-0.064 0.435,-0.064 0.138,0 0.293,-0.022 0.465,-0.064 l 0.161,0 c 0.171,-0.044 0.407,-0.064 0.707,-0.064 0.299,0 0.536,0.02 0.707,0.064 0.064,0.021 0.171,0.032 0.322,0.032 0.106,0.021 0.219,0.038 0.337,0.048 0.117,0.011 0.23,0.037 0.338,0.08 0.727,0.194 1.306,0.451 1.735,0.772 0.428,0.321 0.728,0.856 0.899,1.606 0.043,0.151 0.049,0.322 0.017,0.515 -0.032,0.192 -0.07,0.343 -0.113,0.45 -0.214,0.578 -0.578,1.029 -1.092,1.35 -0.065,0.043 -0.183,0.106 -0.354,0.192 -0.322,0.194 -0.68,0.349 -1.077,0.466 -0.396,0.118 -0.787,0.241 -1.173,0.37 -0.15,0.043 -0.294,0.08 -0.433,0.112 -0.14,0.033 -0.295,0.07 -0.467,0.113 -0.343,0.107 -0.69,0.198 -1.044,0.273 -0.353,0.075 -0.691,0.166 -1.013,0.274 -0.107,0.042 -0.192,0.064 -0.256,0.064 -0.065,0 -0.14,0.021 -0.225,0.064 -0.172,0.043 -0.327,0.085 -0.467,0.128 -0.14,0.043 -0.294,0.085 -0.466,0.129 -0.493,0.171 -0.964,0.348 -1.414,0.531 -0.45,0.181 -0.867,0.39 -1.253,0.626 -0.493,0.322 -0.943,0.696 -1.349,1.125 -0.408,0.428 -0.73,0.921 -0.965,1.478 -0.086,0.193 -0.15,0.391 -0.193,0.595 -0.042,0.203 -0.096,0.423 -0.161,0.659 -0.043,0.192 -0.075,0.471 -0.095,0.835 -0.023,0.364 -0.012,0.664 0.031,0.9 0.021,0.085 0.032,0.214 0.032,0.386 0.065,0.235 0.118,0.46 0.161,0.675 0.043,0.214 0.107,0.428 0.193,0.643 0.321,0.75 0.734,1.386 1.237,1.912 0.504,0.524 1.088,1.001 1.752,1.429 0.429,0.258 0.889,0.461 1.382,0.612 0.492,0.149 1.017,0.289 1.575,0.417 0.214,0.043 0.423,0.069 0.626,0.081 0.204,0.01 0.412,0.037 0.627,0.08 0.064,0.021 0.166,0.021 0.306,0 C -0.134,-0.054 -0.043,-0.043 0,0"
         style="fill:#ffffff;fill-opacity:1;fill-rule:nonzero;stroke:none"
         id="path420" /></g><g
       id="g422"
       transform="translate(381.79254,743.89345)"><path
         inkscape:connector-curvature="0"
         d="m 0,0 3.278,0 c 0.279,0 0.551,-0.005 0.82,-0.016 0.267,-0.01 0.487,-0.07 0.659,-0.176 C 4.82,-0.235 4.869,-0.305 4.901,-0.401 4.934,-0.498 4.96,-0.6 4.981,-0.707 l 0,-0.16 C 5.002,-0.953 5.014,-1.05 5.014,-1.156 l 0,-0.323 0,-1.252 c 0,-0.151 0.005,-0.295 0.015,-0.434 C 5.04,-3.305 5.024,-3.438 4.981,-3.567 4.874,-3.932 4.66,-4.124 4.339,-4.146 4.018,-4.167 3.632,-4.178 3.182,-4.178 l -3.279,0 c -0.428,0 -0.798,-0.015 -1.108,-0.048 -0.311,-0.032 -0.52,-0.23 -0.627,-0.594 -0.022,-0.108 -0.022,-0.204 0,-0.289 0.021,-0.086 0.011,-0.183 -0.032,-0.289 -0.022,-0.129 -0.028,-0.274 -0.016,-0.435 0.011,-0.16 0.016,-0.305 0.016,-0.434 l 0,-2.86 0,-9.256 0,-3.02 c 0,-0.343 -0.016,-0.638 -0.048,-0.884 -0.032,-0.247 -0.166,-0.424 -0.401,-0.53 -0.151,-0.043 -0.323,-0.065 -0.515,-0.065 l -0.547,0 -2.185,0 c -0.236,0 -0.456,0.011 -0.659,0.032 -0.204,0.021 -0.359,0.097 -0.466,0.225 -0.107,0.172 -0.161,0.391 -0.161,0.659 l 0,0.82 0,3.213 0,8.935 0,2.731 c 0,0.15 0.005,0.306 0.017,0.466 0.011,0.161 -0.006,0.306 -0.049,0.434 -0.021,0.107 -0.021,0.204 0,0.29 0.022,0.085 0.011,0.171 -0.032,0.257 -0.108,0.364 -0.326,0.562 -0.658,0.594 -0.333,0.033 -0.724,0.048 -1.173,0.048 l -2.989,0 c -0.237,0 -0.499,-0.006 -0.788,-0.015 -0.289,-0.012 -0.519,0.005 -0.691,0.047 -0.172,0.065 -0.3,0.162 -0.386,0.29 -0.063,0.107 -0.101,0.246 -0.112,0.418 -0.011,0.17 -0.016,0.342 -0.016,0.514 l 0,1.574 c 0,0.279 0.016,0.525 0.048,0.74 0.032,0.214 0.134,0.375 0.306,0.482 0.064,0.042 0.181,0.085 0.353,0.128 L -12.855,0 0,0 z"
         style="fill:#ffffff;fill-opacity:1;fill-rule:nonzero;stroke:none"
         id="path424" /></g></g></svg>